<?xml version="1.0" encoding="UTF-8"?>
<!DOCTYPE svg PUBLIC "-//W3C//DTD SVG 1.1//EN" "http://www.w3.org/Graphics/SVG/1.1/DTD/svg11.dtd">
<!-- Creator: CorelDRAW 2017 -->
<svg xmlns="http://www.w3.org/2000/svg" xml:space="preserve" width="71.5mm" height="37mm" version="1.1" style="shape-rendering:geometricPrecision; text-rendering:geometricPrecision; image-rendering:optimizeQuality; fill-rule:evenodd; clip-rule:evenodd"
viewBox="0 0 7150 3700"
 xmlns:xlink="http://www.w3.org/1999/xlink"
 xmlns:xodm="http://www.corel.com/coreldraw/odm/2003">
 <defs>
  <style type="text/css">
   <![CDATA[
    .fil0 {fill:#FF6D17}
    .fil1 {fill:black;fill-rule:nonzero}
   ]]>
  </style>
 </defs>
 <g id="Слой_x0020_1">
  <metadata id="CorelCorpID_0Corel-Layer"/>
  <g id="_2588540090528">
   <g id="_1599187103280">
    <path class="fil0" d="M2524.58 444.76l1410.77 -308.54 0 -0.09 0.09 0.09 0 -0.09 0 0.09 257.36 56.21 0 165.03 -257.36 -56.29 -1410.86 308.63 0 -165.04 0 0zm2821.63 0l-235.62 -51.47 0 164.94 235.62 51.57 0 -165.04zm-379.22 -82.95l-220.27 -48.19 0 165.04 220.27 48.19 0 -165.04zm-363.87 -79.57l-215.35 -47.13 0 165.04 215.35 47.03 0 -164.94 0 0z"/>
    <path class="fil0" d="M2524.58 741.23l1410.77 -308.54 0 -0.09 0.09 0.09 0 -0.09 0 0.09 257.36 56.2 0 165.04 -257.36 -56.3 -1410.86 308.64 0 -165.04 0 0zm2821.63 0l-235.62 -51.47 0 164.94 235.62 51.57 0 -165.04zm-379.22 -82.96l-220.27 -48.18 0 165.03 220.27 48.19 0 -165.04zm-363.87 -79.57l-215.35 -47.12 0 165.04 215.35 47.03 0 -164.94 0 -0.01z"/>
    <path class="fil0" d="M2524.58 1037.69l1410.77 -308.54 0 -0.09 0.09 0.09 0 -0.09 0 0.09 257.36 56.21 0 165.03 -257.36 -56.29 -1410.86 308.63 0 -165.04 0 0zm2821.63 0l-235.62 -51.47 0 164.94 235.62 51.57 0 -165.04zm-379.22 -82.95l-220.27 -48.19 0 165.04 220.27 48.19 0 -165.04zm-363.87 -79.57l-215.35 -47.13 0 165.04 215.35 47.03 0 -164.94 0 0z"/>
    <path class="fil0" d="M2524.58 1334.16l1410.77 -308.54 0 -0.09 0.09 0.09 0 -0.09 0 0.09 257.36 56.2 0 165.04 -257.36 -56.3 -1410.86 308.63 0 -165.03 0 0zm2821.63 0l-235.62 -51.47 0 164.94 235.62 51.56 0 -165.03zm-379.22 -82.96l-220.27 -48.18 0 165.03 220.27 48.19 0 -165.04zm-363.87 -79.57l-215.35 -47.12 0 165.03 215.35 47.03 0 -164.94 0 0z"/>
    <path class="fil0" d="M2524.58 1630.62l1410.77 -308.54 0 -0.09 0.09 0.09 0 -0.09 0 0.09 257.36 56.21 0 165.03 -257.36 -56.29 -1410.86 308.63 0 -165.04 0 0zm2821.63 0l-235.62 -51.47 0 164.94 235.62 51.57 0 -165.04zm-379.22 -82.95l-220.27 -48.19 0 165.04 220.27 48.19 0 -165.04zm-363.87 -79.57l-215.35 -47.13 0 165.04 215.35 47.03 0 -164.94 0 0z"/>
    <path class="fil0" d="M2524.58 1927.09l1410.77 -308.54 0 -0.09 0.09 0.09 0 -0.09 0 0.09 257.36 56.2 0 165.04 -257.36 -56.3 -1410.86 308.63 0 -165.03 0 0zm2821.63 0l-235.62 -51.47 0 164.94 235.62 51.56 0 -165.03zm-379.22 -82.96l-220.27 -48.18 0 165.03 220.27 48.19 0 -165.04zm-363.87 -79.57l-215.35 -47.12 0 165.03 215.35 47.03 0 -164.94 0 0z"/>
    <path class="fil0" d="M2524.58 2223.55l1410.77 -308.54 0 -0.09 0.09 0.09 0 -0.09 0 0.09 257.36 56.21 0 165.03 -257.36 -56.3 -1410.86 308.64 0 -165.04 0 0zm2821.63 0l-235.62 -51.47 0 164.94 235.62 51.57 0 -165.04zm-379.22 -82.95l-220.27 -48.19 0 165.04 220.27 48.19 0 -165.04zm-363.87 -79.57l-215.35 -47.13 0 165.04 215.35 47.03 0 -164.94 0 0z"/>
   </g>
  </g>
  <path class="fil1" d="M119.76 3479.09l294.81 -806.11 111.82 0 312.89 806.11 -115.75 0 -88.91 -244.31 -323.62 0 -83.37 244.31 -107.87 0zm221.12 -331l261.89 0 -80.14 -223.48c-24.15,-67.93 -42.4,-124.03 -55.1,-168.32 -10.55,52.54 -24.69,104.15 -42.39,155.18l-84.26 236.62z"/>
  <path id="1" class="fil1" d="M1000.46 2672.98l479.8 0 0 806.11 -101.97 0 0 -711.54 -275.86 0 0 415.25c0,84.44 -3.75,146.18 -11.28,185.39 -7.51,39.41 -23.43,69.81 -47.58,91.76 -24.15,21.77 -54.91,32.65 -91.95,32.65 -22.54,0 -49.55,-4.88 -81.04,-14.64l18.25 -94.57c16.63,9.01 30.94,13.51 42.76,13.51 22.9,0 40.25,-9 51.7,-27.21 11.45,-18.2 17.17,-60.98 17.17,-128.53l0 -568.18z"/>
  <path id="2" class="fil1" d="M1652.35 2672.98l101.97 0 0 343.39 183.01 0c85.51,0 147.41,10.5 185.88,31.33 38.27,21.02 65.83,49.54 82.64,85.38 16.64,36.03 25.05,73.18 25.05,111.27 0,62.48 -20.22,117.28 -60.83,164.19 -40.43,47.09 -115.75,70.55 -226.12,70.55l-291.6 0 0 -806.11zm101.97 714.92l185.69 0c75.32,0 124.33,-14.08 147.23,-42.04 22.72,-27.95 34.17,-61.92 34.17,-101.51 0,-32.09 -8.22,-59.48 -24.86,-82 -16.46,-22.52 -38.64,-37.15 -66.19,-43.72 -27.56,-6.57 -74.24,-9.94 -140.08,-9.94l-135.96 0 0 279.21z"/>
  <path id="3" class="fil1" d="M2630.55 2768.68l0 -102.45 95.53 0 0 102.45c97.86,5.44 175.14,36.4 231.66,92.88 56.71,56.48 84.98,126.47 84.98,210.16 0,82 -27.37,151.61 -82.29,209.03 -54.92,57.23 -132.92,88.94 -234.35,94.76l0 103.58 -95.53 0 0 -103.58c-90.89,-3.75 -166.56,-32.84 -227.02,-87.44 -60.46,-54.42 -90.71,-126.66 -90.71,-216.35 0,-89.88 30.25,-161.93 90.53,-215.98 60.29,-54.04 135.96,-82.93 227.2,-87.06zm95.53 91.19l0 424.45c65.65,-3.38 117.17,-23.46 154.92,-60.24 37.75,-36.77 56.53,-87.44 56.53,-151.98 0,-63.43 -18.43,-113.53 -55.46,-150.68 -37.03,-36.97 -88.91,-57.42 -155.99,-61.55zm-95.53 1.13c-63.33,3 -114.5,22.52 -153.68,58.92 -39.17,36.4 -58.85,87.06 -58.85,152.18 0,64.36 19.32,114.83 57.96,151.61 38.64,36.78 90.16,56.48 154.57,59.48l0 -422.19z"/>
  <path id="4" class="fil1" d="M3060.79 3479.09l294.81 -806.11 111.81 0 312.9 806.11 -115.75 0 -88.92 -244.31 -323.61 0 -83.37 244.31 -107.87 0zm221.11 -331l261.9 0 -80.14 -223.48c-24.15,-67.93 -42.4,-124.03 -55.1,-168.32 -10.55,52.54 -24.69,104.15 -42.39,155.18l-84.27 236.62z"/>
  <path id="5" class="fil1" d="M4128.07 3086.73c0,-133.6 34.35,-238.3 102.86,-313.92 68.52,-75.62 156.9,-113.34 265.31,-113.34 71.02,0 134.89,17.83 191.96,53.29 56.89,35.47 100.35,85 130.23,148.61 29.88,63.43 44.91,135.48 44.91,215.98 0,81.62 -15.74,154.8 -47.24,219.16 -31.48,64.55 -76.03,113.34 -133.63,146.37 -57.79,33.21 -120.04,49.72 -186.77,49.72 -72.45,0 -137.03,-18.39 -194.1,-54.98 -56.89,-36.59 -100.18,-86.5 -129.52,-149.92 -29.33,-63.24 -44.01,-130.23 -44.01,-200.97zm105.19 1.88c0,97.01 24.88,173.38 74.6,229.11 49.74,55.73 112.17,83.69 187.31,83.69 76.56,0 139.35,-28.15 188.91,-84.44 49.38,-56.29 74.06,-136.23 74.06,-239.81 0,-65.49 -10.55,-122.72 -31.66,-171.5 -21.11,-48.79 -52.06,-86.69 -92.67,-113.53 -40.79,-26.83 -86.41,-40.34 -137.03,-40.34 -71.92,0 -133.82,25.9 -185.69,77.68 -51.89,51.79 -77.83,138.11 -77.83,259.14z"/>
  <path id="6" class="fil1" d="M4996.25 2672.98l101.97 0 0 353.52c46.34,0 79.08,-9.57 97.86,-28.52 18.96,-18.96 42.93,-64.36 72.27,-136.42 21.28,-53.1 38.82,-90.44 52.77,-112.21 13.78,-21.95 33.46,-40.34 59.04,-55.17 25.41,-14.82 53.66,-22.32 84.44,-22.32 39.17,0 59.75,0.37 61.89,1.12l0 92.32c-3.57,0 -10.37,-0.19 -20.39,-0.56 -11.27,-0.38 -18.07,-0.56 -20.57,-0.56 -32.38,0 -56.53,8.25 -72.28,24.76 -16.09,16.52 -34.34,51.79 -55.1,105.65 -25.76,68.3 -47.58,111.46 -65.48,129.28 -17.7,17.64 -39.17,31.9 -63.85,42.6 49.54,14.26 98.57,62.48 146.87,144.29l158.32 268.33 -126.3 0 -128.98 -218.41c-35.25,-60.61 -64.77,-102.27 -88.38,-124.79 -23.79,-22.7 -54.38,-33.96 -92.13,-33.96l0 377.16 -101.97 0 0 -806.11z"/>
  <polygon id="7" class="fil1" points="5623.63,3479.09 5623.63,2672.98 5725.61,2672.98 5725.61,3005.11 6122.75,3005.11 6122.75,2672.98 6224.72,2672.98 6224.72,3479.09 6122.75,3479.09 6122.75,3099.68 5725.61,3099.68 5725.61,3479.09 "/>
  <path id="8" class="fil1" d="M6310.23 3479.09l294.82 -806.11 111.81 0 312.9 806.11 -115.76 0 -88.91 -244.31 -323.62 0 -83.36 244.31 -107.88 0zm221.12 -331l261.9 0 -80.14 -223.48c-24.15,-67.93 -42.4,-124.03 -55.1,-168.32 -10.55,52.54 -24.69,104.15 -42.4,155.18l-84.26 236.62z"/>
 </g>
</svg>
